<svg width="24" height="24" viewBox="0 0 24 24" fill="none" xmlns="http://www.w3.org/2000/svg">
<path fill-rule="evenodd" clip-rule="evenodd" d="M4.804 21.644A6.707 6.707 0 006 22a6.721 6.721 0 004.844-2.018c.05.01.101.018.156.018 2.032 0 3.938-.785 5.375-2.21A7.977 7.977 0 0018.5 12a7.977 7.977 0 00-2.125-5.79A7.47 7.47 0 0011 4a7.47 7.47 0 00-5.375 2.21A7.977 7.977 0 003.5 12a7.977 7.977 0 002.125 5.79c-.441.855-.693 1.624-.821 2.354zM12 18.25c-1.4 0-2.7-.55-3.7-1.55a.25.25 0 00-.4.05c-.45.85-.8 1.5-1.15 2.05.3-.5.6-1.1.8-1.75a.25.25 0 00-.1-.3A5.98 5.98 0 015.5 12a5.98 5.98 0 011.95-4.45A5.48 5.48 0 0111 6a5.48 5.48 0 013.55 1.55A5.98 5.98 0 0116.5 12a5.98 5.98 0 01-1.95 4.45A5.48 5.48 0 0111 18z" fill="currentColor"/>
<path d="M8 10.5a.5.5 0 01.5-.5h7a.5.5 0 010 1h-7a.5.5 0 01-.5-.5zM8.5 12a.5.5 0 000 1h7a.5.5 0 000-1h-7zM8 14.5a.5.5 0 01.5-.5h4a.5.5 0 010 1h-4a.5.5 0 01-.5-.5z" fill="currentColor"/>
</svg>
