<svg width="24" height="24" viewBox="0 0 24 24" fill="none" xmlns="http://www.w3.org/2000/svg">
<circle cx="12" cy="12" r="12" fill="url(#instagram-gradient)"/>
<defs>
<radialGradient id="instagram-gradient" cx="0.3" cy="1.1" r="1.2">
<stop offset="0%" style="stop-color:#FCCC63"/>
<stop offset="10%" style="stop-color:#FCAD45"/>
<stop offset="20%" style="stop-color:#FD1F4F"/>
<stop offset="50%" style="stop-color:#E1306C"/>
<stop offset="80%" style="stop-color:#C13584"/>
<stop offset="100%" style="stop-color:#833AB4"/>
</radialGradient>
</defs>
<path d="M12 7.8C9.8 7.8 8 9.6 8 11.8C8 14 9.8 15.8 12 15.8C14.2 15.8 16 14 16 11.8C16 9.6 14.2 7.8 12 7.8ZM12 14.4C10.6 14.4 9.4 13.2 9.4 11.8C9.4 10.4 10.6 9.2 12 9.2C13.4 9.2 14.6 10.4 14.6 11.8C14.6 13.2 13.4 14.4 12 14.4Z" fill="white"/>
<path d="M16.4 5.6H7.6C6.2 5.6 5 6.8 5 8.2V15.4C5 16.8 6.2 18 7.6 18H16.4C17.8 18 19 16.8 19 15.4V8.2C19 6.8 17.8 5.6 16.4 5.6ZM17.5 15.4C17.5 16 17 16.5 16.4 16.5H7.6C7 16.5 6.5 16 6.5 15.4V8.2C6.5 7.6 7 7.1 7.6 7.1H16.4C17 7.1 17.5 7.6 17.5 8.2V15.4Z" fill="white"/>
<circle cx="16.6" cy="7.6" r="0.8" fill="white"/>
</svg>
